<?xml version="1.0" encoding="UTF-8" standalone="no"?>
<!-- Created with Inkscape (http://www.inkscape.org/) -->

<svg
   version="1.1"
   id="svg9"
   width="558"
   height="191"
   viewBox="0 0 558 191"
   sodipodi:docname="overfitted-logo.svg"
   inkscape:version="1.1.2 (b8e25be833, 2022-02-05)"
   xmlns:inkscape="http://www.inkscape.org/namespaces/inkscape"
   xmlns:sodipodi="http://sodipodi.sourceforge.net/DTD/sodipodi-0.dtd"
   xmlns="http://www.w3.org/2000/svg"
   xmlns:svg="http://www.w3.org/2000/svg">
  <defs
     id="defs13">
    <marker
       orient="auto"
       refY="0"
       refX="0"
       id="InfiniteLineStart"
       inkscape:stockid="InfiniteLineStart"
       style="overflow:visible"
       inkscape:isstock="true">
      <g
         transform="translate(-13,0)"
         style="fill:context-stroke"
         id="g43279">
        <circle
           cx="3"
           cy="0"
           r="0.8"
           id="circle43273" />
        <circle
           cx="6.5"
           cy="0"
           r="0.8"
           id="circle43275" />
        <circle
           cx="10"
           cy="0"
           r="0.8"
           id="circle43277" />
      </g>
    </marker>
    <marker
       style="overflow:visible"
       id="Arrow1Lstart"
       refX="0.0"
       refY="0.0"
       orient="auto"
       inkscape:stockid="Arrow1Lstart"
       inkscape:isstock="true">
      <path
         transform="scale(0.8) translate(12.5,0)"
         style="fill-rule:evenodd;fill:context-stroke;stroke:context-stroke;stroke-width:1.0pt"
         d="M 0.0,0.0 L 5.0,-5.0 L -12.5,0.0 L 5.0,5.0 L 0.0,0.0 z "
         id="path43029" />
    </marker>
    <marker
       style="overflow:visible"
       id="SemiCircleIn"
       refX="0.0"
       refY="0.0"
       orient="auto"
       inkscape:stockid="SemiCircleIn"
       inkscape:isstock="true">
      <path
         transform="scale(0.6)"
         style="fill-rule:evenodd;fill:context-stroke;stroke:context-stroke;stroke-width:1.0pt"
         d="M -0.37450702,-0.045692580 C -0.37450702,2.7143074 1.8654930,4.9543074 4.6254930,4.9543074 L 4.6254930,-5.0456926 C 1.8654930,-5.0456926 -0.37450702,-2.8056926 -0.37450702,-0.045692580 z "
         id="path43207" />
    </marker>
    <marker
       style="overflow:visible"
       id="DotL"
       refX="0.0"
       refY="0.0"
       orient="auto"
       inkscape:stockid="DotL"
       inkscape:isstock="true">
      <path
         transform="scale(0.8) translate(7.4, 1)"
         style="fill-rule:evenodd;fill:context-stroke;stroke:context-stroke;stroke-width:1.0pt"
         d="M -2.5,-1.0 C -2.5,1.7600000 -4.7400000,4.0 -7.5,4.0 C -10.260000,4.0 -12.5,1.7600000 -12.5,-1.0 C -12.5,-3.7600000 -10.260000,-6.0 -7.5,-6.0 C -4.7400000,-6.0 -2.5,-3.7600000 -2.5,-1.0 z "
         id="path43090" />
    </marker>
    <inkscape:path-effect
       effect="bspline"
       id="path-effect42459"
       is_visible="true"
       lpeversion="1"
       weight="33.333333"
       steps="2"
       helper_size="0"
       apply_no_weight="true"
       apply_with_weight="true"
       only_selected="false" />
  </defs>
  <sodipodi:namedview
     id="namedview11"
     pagecolor="#ffffff"
     bordercolor="#666666"
     borderopacity="1.0"
     inkscape:pageshadow="2"
     inkscape:pageopacity="0.0"
     inkscape:pagecheckerboard="0"
     showgrid="false"
     inkscape:zoom="1.0815692"
     inkscape:cx="102.16637"
     inkscape:cy="-44.842253"
     inkscape:window-width="1920"
     inkscape:window-height="1001"
     inkscape:window-x="-9"
     inkscape:window-y="-9"
     inkscape:window-maximized="1"
     inkscape:current-layer="g15" />
  <g
     inkscape:groupmode="layer"
     inkscape:label="Image"
     id="g15">
    <g
       aria-label="overfitted"
       id="text1790"
       style="font-size:106.667px;line-height:4.45;font-family:'Segoe UI';-inkscape-font-specification:'Segoe UI';fill:#ff4500">
      <path
         d="m 162.75851,132.39301 q -5.12002,0 -9.60003,-2.77334 -4.48002,-2.77335 -7.25336,-7.25336 -2.66667,-4.48001 -2.66667,-9.7067 v -12.37337 q 0,-5.226682 2.66667,-9.706696 2.66668,-4.480014 7.14669,-7.146689 4.48001,-2.666675 9.7067,-2.666675 5.33335,0 9.70669,2.666675 4.48002,2.560008 7.14669,7.040022 2.77335,4.373347 2.77335,9.813363 v 12.37337 q 0,5.12002 -2.77335,9.7067 -2.66667,4.48001 -7.14669,7.25336 -4.37334,2.77334 -9.70669,2.77334 z m 0,-4.90668 q 4.05334,0 7.25335,-2.13334 3.20001,-2.13334 5.12002,-5.54669 2.02667,-3.41334 2.02667,-7.14669 v -12.37337 q 0,-3.733344 -1.92,-7.040021 -1.92001,-3.306677 -5.22669,-5.440017 -3.20001,-2.13334 -7.25335,-2.13334 -4.05335,0 -7.25336,2.13334 -3.20001,2.13334 -5.12001,5.440017 -1.92001,3.306677 -1.92001,7.040021 v 12.37337 q 0,3.73335 1.92001,7.14669 1.92,3.41335 5.12001,5.54669 3.30668,2.13334 7.25336,2.13334 z"
         style="font-weight:300;font-family:Dosis;-inkscape-font-specification:'Dosis Light'"
         id="path14161" />
      <path
         d="m 209.05203,132.49967 q -0.96,0 -1.6,-0.42666 -0.64,-0.32 -0.96,-1.06667 L 189.63864,85.352861 q -0.10667,-0.213334 -0.32,-0.746669 -0.10667,-0.533335 -0.10667,-0.853336 0,-0.640002 0.42667,-1.173337 0.53333,-0.640002 1.17334,-0.960003 0.64,-0.320001 1.38667,-0.320001 0.64,0 1.28,0.320001 0.64,0.320001 0.85334,0.960003 l 14.72004,40.320121 14.50671,-39.680119 q 0.21334,-0.746669 0.64001,-1.280004 0.42666,-0.640002 1.49333,-0.640002 0.64001,0 1.28001,0.320001 0.74667,0.213334 1.28,0.853336 0.53334,0.533335 0.53334,1.173337 0,0.533335 -0.21334,0.960003 -0.10666,0.426668 -0.21333,0.746669 l -16.85339,45.653479 q -0.32,0.64 -0.96,1.06667 -0.64,0.42666 -1.49334,0.42666 z"
         style="font-weight:300;font-family:Dosis;-inkscape-font-specification:'Dosis Light'"
         id="path14163" />
      <path
         d="m 257.90559,132.39301 q -6.50669,0 -11.52004,-2.45334 -4.90668,-2.45334 -7.78669,-6.82669 -2.88001,-4.48001 -2.88001,-10.45337 V 99.96624 q 0,-5.226683 2.66668,-9.60003 2.77334,-4.373347 7.14669,-6.933355 4.48001,-2.666675 9.81336,-2.666675 5.22669,0 9.60003,2.560008 4.37335,2.453341 7.04002,6.826688 2.77335,4.26668 2.77335,9.920034 0,3.94668 -1.38667,5.76002 -1.28001,1.70667 -3.30668,2.13334 -2.02667,0.32 -4.37335,0.32 h -24.74674 v 4.48001 q 0,6.82669 4.90668,10.88003 4.90668,3.94668 12.2667,3.94668 4.37335,0 6.72003,-1.06667 2.34667,-1.06667 3.62667,-2.13334 1.28001,-1.06667 2.34668,-1.06667 0.74667,0 1.28,0.42667 0.53334,0.42667 0.85334,1.06667 0.32,0.53334 0.32,1.06667 0,1.06667 -1.92001,2.66668 -1.81334,1.6 -5.22668,2.77334 -3.41334,1.06667 -8.21336,1.06667 z m -16.96005,-28.48009 h 22.72007 q 3.62668,0 4.80001,-0.74667 1.17334,-0.74667 1.17334,-3.09334 0,-3.626681 -1.81334,-6.933358 -1.70667,-3.413344 -5.01335,-5.546684 -3.20001,-2.13334 -7.46669,-2.13334 -4.05334,0 -7.36002,1.920006 -3.20001,1.920006 -5.12002,5.120016 -1.92,3.20001 -1.92,7.040022 z"
         style="font-weight:300;font-family:Dosis;-inkscape-font-specification:'Dosis Light'"
         id="path14165" />
      <path
         d="m 288.19904,131.75301 q -1.06667,0 -1.81334,-0.64001 -0.74667,-0.74667 -0.74667,-1.6 V 83.539522 q 0,-0.960003 0.74667,-1.493338 0.74667,-0.640002 1.81334,-0.640002 1.17333,0 1.81334,0.640002 0.74666,0.533335 0.74666,1.493338 v 5.440017 q 1.28001,-2.13334 3.30668,-3.946679 2.02667,-1.920006 4.80002,-3.093343 2.88001,-1.173337 6.50668,-1.173337 h 3.84002 q 0.96,0 1.6,0.746669 0.64,0.640002 0.64,1.706672 0,1.06667 -0.64,1.813339 -0.64,0.640002 -1.6,0.640002 h -3.84002 q -3.62667,0 -7.04002,1.920006 -3.30668,1.813339 -5.44002,5.33335 -2.02667,3.413344 -2.02667,8.320022 V 129.513 q 0,0.85333 -0.74667,1.6 -0.74667,0.64001 -1.92,0.64001 z"
         style="font-weight:300;font-family:Dosis;-inkscape-font-specification:'Dosis Light'"
         id="path14167" />
      <path
         d="m 322.11923,131.75301 q -1.06667,0 -1.81334,-0.64001 -0.64,-0.64 -0.64,-1.49333 V 69.779479 q 0,-4.800015 2.45334,-9.280029 2.45334,-4.586681 7.14669,-7.46669 4.69335,-2.986676 11.6267,-2.986676 3.84002,0 7.46669,0.960003 3.62668,0.853336 5.97336,2.346674 2.45334,1.386671 2.45334,3.093343 0,0.640002 -0.32,1.386671 -0.32,0.640002 -0.85334,1.06667 -0.53333,0.426668 -1.06667,0.426668 -0.85334,0 -2.34667,-1.06667 -1.38667,-1.173337 -4.05335,-2.240007 -2.56001,-1.06667 -7.04002,-1.06667 -4.69335,0 -7.89336,1.493338 -3.09334,1.493338 -4.90668,3.840012 -1.81334,2.240007 -2.66668,4.800015 -0.74667,2.453341 -0.74667,4.586681 v 11.73337 h 14.29338 q 0.96001,0 1.49334,0.640002 0.64,0.640002 0.64,1.600005 0,0.960003 -0.64,1.706672 -0.53333,0.640002 -1.49334,0.640002 h -14.29338 v 43.626807 q 0,0.85333 -0.85333,1.49333 -0.74667,0.64001 -1.92001,0.64001 z m 33.28011,0 q -1.06667,0 -1.81334,-0.64001 -0.74667,-0.74667 -0.74667,-1.6 V 83.539522 q 0,-0.960003 0.74667,-1.493338 0.74667,-0.640002 1.81334,-0.640002 1.17333,0 1.92,0.640002 0.74667,0.533335 0.74667,1.493338 V 129.513 q 0,0.85333 -0.74667,1.6 -0.74667,0.64001 -1.92,0.64001 z"
         style="font-weight:300;font-family:Dosis;-inkscape-font-specification:'Dosis Light'"
         id="path14169" />
      <path
         d="m 387.82607,131.75301 q -7.89335,0 -12.05337,-3.62668 -4.16001,-3.62668 -4.16001,-11.52004 V 59.219446 q 0,-1.06667 0.85334,-1.600005 0.85333,-0.640002 1.70667,-0.640002 1.06667,0 1.81334,0.640002 0.85333,0.533335 0.85333,1.600005 v 22.186736 h 14.18671 q 0.85334,0 1.38668,0.640002 0.64,0.640002 0.64,1.706672 0,0.853336 -0.64,1.600005 -0.53334,0.640002 -1.38668,0.640002 h -14.18671 v 30.613427 q 0,5.54669 2.45334,7.89336 2.56001,2.34667 8.53336,2.34667 h 2.66668 q 1.17334,0 1.81334,0.74667 0.64,0.64 0.64,1.70667 0,0.96001 -0.64,1.70668 -0.64,0.74667 -1.81334,0.74667 z"
         style="font-weight:300;font-family:Dosis;-inkscape-font-specification:'Dosis Light'"
         id="path14171" />
      <path
         d="m 418.01293,131.75301 q -7.89335,0 -12.05337,-3.62668 -4.16001,-3.62668 -4.16001,-11.52004 V 59.219446 q 0,-1.06667 0.85334,-1.600005 0.85333,-0.640002 1.70667,-0.640002 1.06667,0 1.81334,0.640002 0.85333,0.533335 0.85333,1.600005 v 22.186736 h 14.18671 q 0.85334,0 1.38667,0.640002 0.64001,0.640002 0.64001,1.706672 0,0.853336 -0.64001,1.600005 -0.53333,0.640002 -1.38667,0.640002 h -14.18671 v 30.613427 q 0,5.54669 2.45334,7.89336 2.56001,2.34667 8.53336,2.34667 h 2.66668 q 1.17334,0 1.81334,0.74667 0.64,0.64 0.64,1.70667 0,0.96001 -0.64,1.70668 -0.64,0.74667 -1.81334,0.74667 z"
         style="font-weight:300;font-family:Dosis;-inkscape-font-specification:'Dosis Light'"
         id="path14173" />
      <path
         d="m 451.50646,132.39301 q -6.50669,0 -11.52004,-2.45334 -4.90668,-2.45334 -7.78669,-6.82669 -2.88001,-4.48001 -2.88001,-10.45337 V 99.96624 q 0,-5.226683 2.66668,-9.60003 2.77334,-4.373347 7.14669,-6.933355 4.48001,-2.666675 9.81336,-2.666675 5.22668,0 9.60003,2.560008 4.37335,2.453341 7.04002,6.826688 2.77334,4.26668 2.77334,9.920034 0,3.94668 -1.38667,5.76002 -1.28,1.70667 -3.30667,2.13334 -2.02668,0.32 -4.37335,0.32 h -24.74674 v 4.48001 q 0,6.82669 4.90668,10.88003 4.90668,3.94668 12.2667,3.94668 4.37335,0 6.72002,-1.06667 2.34668,-1.06667 3.62668,-2.13334 1.28001,-1.06667 2.34668,-1.06667 0.74666,0 1.28,0.42667 0.53333,0.42667 0.85334,1.06667 0.32,0.53334 0.32,1.06667 0,1.06667 -1.92001,2.66668 -1.81334,1.6 -5.22668,2.77334 -3.41335,1.06667 -8.21336,1.06667 z m -16.96005,-28.48009 h 22.72007 q 3.62667,0 4.80001,-0.74667 1.17334,-0.74667 1.17334,-3.09334 0,-3.626681 -1.81334,-6.933358 -1.70667,-3.413344 -5.01335,-5.546684 -3.20001,-2.13334 -7.46669,-2.13334 -4.05335,0 -7.36002,1.920006 -3.20001,1.920006 -5.12002,5.120016 -1.92,3.20001 -1.92,7.040022 z"
         style="font-weight:300;font-family:Dosis;-inkscape-font-specification:'Dosis Light'"
         id="path14175" />
      <path
         d="m 496.30662,132.39301 q -5.01334,0 -9.38669,-2.77334 -4.37335,-2.77335 -7.04002,-7.25336 -2.56001,-4.58668 -2.56001,-9.7067 v -12.37337 q 0,-5.440016 2.56001,-9.813363 2.66667,-4.480014 7.04002,-7.040022 4.37335,-2.666675 9.60003,-2.666675 5.33335,0 8.85336,2.560008 3.62668,2.453341 5.33335,5.546684 V 52.286091 q 0,-1.06667 0.74667,-1.600005 0.85333,-0.640002 1.92,-0.640002 1.17334,0 1.81334,0.640002 0.74667,0.533335 0.74667,1.600005 V 129.513 q 0,0.85333 -0.74667,1.6 -0.64,0.64001 -1.81334,0.64001 -0.96,0 -1.81333,-0.64001 -0.74667,-0.74667 -0.74667,-1.6 v -5.22668 q -1.60001,3.30667 -5.65335,5.76001 -3.94668,2.34668 -8.85337,2.34668 z m 0.42667,-4.90668 q 4.05335,0 7.14669,-2.02668 3.20001,-2.13334 5.01335,-4.80001 1.81334,-2.66668 1.81334,-4.37335 v -16.00005 q 0,-4.58668 -2.02667,-7.78669 -2.02668,-3.306677 -5.22669,-5.013349 -3.09334,-1.813339 -6.61335,-1.813339 -3.84001,0 -7.14669,2.13334 -3.20001,2.13334 -5.22668,5.440017 -1.92001,3.306677 -1.92001,7.040021 v 12.37337 q 0,3.73335 1.92001,7.14669 2.02667,3.41335 5.22668,5.54669 3.20001,2.13334 7.04002,2.13334 z"
         style="font-weight:300;font-family:Dosis;-inkscape-font-specification:'Dosis Light'"
         id="path14177" />
    </g>
    <circle
       style="fill:#ff4500;fill-opacity:1;stroke-width:4;stroke-linecap:round;stroke-miterlimit:4;stroke-dasharray:16, 8;stroke-dashoffset:0"
       id="path62949"
       r="9.2458248"
       cy="169.26778"
       cx="91.495964" />
    <circle
       style="fill:#ff4500;fill-opacity:1;stroke-width:4;stroke-linecap:round;stroke-miterlimit:4;stroke-dasharray:16, 8;stroke-dashoffset:0"
       id="path62949-6"
       cx="48.180832"
       cy="38.139027"
       r="9.2458248" />
    <circle
       style="fill:#ff4500;fill-opacity:1;stroke-width:4;stroke-linecap:round;stroke-miterlimit:4;stroke-dasharray:16, 8;stroke-dashoffset:0"
       id="path62949-0"
       cx="21.727678"
       cy="95.000854"
       r="9.2458248" />
    <path
       style="fill:none;stroke:#001551;stroke-width:4;stroke-linecap:round;stroke-linejoin:miter;stroke-miterlimit:4;stroke-dasharray:16, 8;stroke-dashoffset:0;stroke-opacity:1"
       d="M 12.505095,132.10793 C 28.680595,71.637476 31.774524,41.770979 46.340647,37.476104 68.554713,30.926204 68.840382,171.58692 91.001153,169.14199 103.12311,167.80462 106.14437,147.25117 121.24608,101.02143"
       id="path42457"
       sodipodi:nodetypes="cssc" />
  </g>
</svg>
